<svg width="242" height="100" viewBox="0 0 242 100" fill="none" xmlns="http://www.w3.org/2000/svg">
<g clip-path="url(#clip0_3578_19159)">
<path d="M239.854 73.2486C238.469 70.6482 236.522 68.5643 234.068 67.0757C231.601 65.5325 228.777 64.7548 225.676 64.7548C222.574 64.7548 219.738 65.5325 217.241 67.0697C214.787 68.5582 212.816 70.6361 211.383 73.2304C209.956 75.8187 209.23 78.814 209.23 82.1252C209.23 83.0062 209.279 83.8811 209.381 84.7317C208.142 86.8461 206.54 88.5473 204.623 89.7989C202.701 91.0322 200.536 91.6641 198.19 91.6823C198.166 91.6823 198.136 91.6823 198.112 91.6823C194.889 91.6823 192.489 90.8257 190.79 89.0759C189.151 87.3564 188.281 84.9079 188.281 81.9977C188.281 79.0874 188.952 76.8029 190.27 75.1746C191.588 73.5524 193.269 72.7626 195.403 72.7626C197.537 72.7626 199.109 73.5585 200.306 75.1868L200.856 75.9402L201.721 75.5999C204.061 74.6825 205.56 73.1271 206.183 70.9824L206.346 70.4174L206.008 69.9374C204.805 68.2483 203.233 66.9542 201.358 66.1158C199.52 65.2166 197.453 64.7609 195.209 64.7609C192.138 64.7609 189.345 65.6115 186.896 67.2884C182.458 68.941 177.603 69.9131 172.44 70.2229C172.277 69.6822 172.095 69.1718 171.89 68.6979C170.832 66.0854 169.302 64.7609 167.349 64.7609C166.267 64.7609 165.154 65.1923 164.042 66.0429C163.044 66.7962 162.192 67.8534 161.509 69.1658C160.825 70.4356 160.408 71.8573 160.269 73.3945L160.221 73.9109L160.559 74.2997C161.66 75.5756 163.147 76.6267 164.979 77.4348V77.6596C164.979 80.1263 164.532 82.4837 163.643 84.677C162.815 86.7853 161.696 88.5169 160.324 89.8232C159.042 91.0383 157.706 91.6276 156.243 91.6276C155.517 91.6276 153.316 91.6276 153.316 85.7707V75.9706C153.316 72.5985 152.379 69.8706 150.559 67.902C148.733 65.8181 146.472 64.7609 143.842 64.7609C138.171 64.7609 134.301 68.4671 132.336 75.7944L130.402 83.3951C129.622 86.5058 128.721 88.7295 127.711 90.0176C126.871 91.0991 125.976 91.6276 124.984 91.6276C124.912 91.6276 124.833 91.6276 124.755 91.6337C123.291 91.5669 122.705 90.8864 122.421 90.4064C121.828 89.2946 121.532 87.6784 121.532 85.5945V66.0186L120.692 65.7451C119.634 65.4049 118.509 65.2287 117.354 65.2287C116.731 65.2287 116.121 65.2773 115.546 65.3745C114.966 65.4717 114.458 65.5993 114.029 65.7573L113.237 66.0489V79.0935C113.237 91.4393 107.197 91.4393 105.214 91.4393C103.025 91.4393 101.483 90.777 100.522 89.4222C99.4699 87.9093 98.9318 85.3697 98.9318 81.8822V66.0064L98.0914 65.7391C97.0273 65.3988 95.9269 65.2287 94.8145 65.2287C94.1917 65.2287 93.5811 65.2773 93.0006 65.3745C92.4323 65.4717 91.9184 65.5933 91.4649 65.7391L90.6306 66.0125V72.5378C90.6306 76.2804 89.9716 79.6464 88.6717 82.5505C87.3838 85.4183 85.6003 87.6967 83.3753 89.3371C81.1201 90.9958 77.4743 91.9922 73.629 91.9922C70.4125 91.9922 67.3895 91.2874 65.3641 90.0783C63.5321 88.9118 62.1234 87.1924 61.1499 84.9201C61.0169 84.6345 60.9202 84.4036 60.8537 84.2153L60.7932 84.0269L60.9202 83.8933C63.7377 81.0012 66.5068 77.4105 69.1549 73.2183C71.8092 68.9288 74.1853 64.1898 76.2107 59.1287C78.3208 54.0373 79.9895 48.5874 81.1806 42.9491C82.4382 37.2501 83.073 31.4357 83.073 25.6698C83.073 17.6803 81.6763 11.3311 78.9254 6.78652C76.2047 2.29658 72.2626 0.0181885 67.2141 0.0181885C64.6808 0.0181885 62.3168 0.546775 60.1705 1.5918C58.1027 2.63074 56.3252 4.35017 54.9044 6.68931C53.9188 8.26899 53.0905 10.0613 52.4376 12.0359C51.845 13.9498 51.3493 16.3254 50.9563 19.0959C50.5572 21.915 50.2912 25.4146 50.1642 29.4914C50.0373 33.4467 49.9708 38.3194 49.9647 43.9941V46.2421C49.9829 54.821 50.1159 61.96 50.3698 67.4585C50.6298 73.1332 51.1256 77.8419 51.8571 81.4387L51.8874 81.5967L51.7906 81.7C51.4097 82.1252 50.9986 82.6356 50.5693 83.1824C49.3238 84.75 47.6249 86.9007 46.1436 87.0405C46.0831 87.0466 46.0166 87.0466 45.9501 87.0466C43.441 87.0466 38.9609 83.1277 36.5545 81.0195C35.9983 80.5334 35.5025 80.102 35.0914 79.7557C34.0091 78.8504 32.9934 77.9512 32.0865 77.0703C28.5858 73.7043 25.2182 69.6093 22.0802 64.9128C18.8879 60.0826 16.1128 54.821 13.8213 49.2739C11.1489 43.0038 9.34117 36.4481 8.59751 30.3238C7.61804 22.2613 8.32543 16.696 10.6834 13.7918C12.4489 11.6167 15.5686 10.3712 19.2386 10.3712C20.8468 10.3712 22.4551 10.6203 23.8638 11.082C24.1782 11.1914 24.4926 11.3068 24.807 11.4344C25.073 11.5438 25.3512 11.5985 25.6353 11.5985C26.7478 11.5985 27.6729 10.7661 27.7877 9.66641C27.8059 9.47806 27.824 9.30186 27.8361 9.13174C27.9147 8.25077 27.951 8.19609 28.1384 8.05634C28.3137 7.92875 28.6765 7.73433 28.7974 7.6918C29.535 7.53383 30.0066 7.13284 30.1941 6.50096C30.2424 6.33692 30.3815 5.73543 30.0671 5.01242C29.5834 3.93094 28.1263 3.62108 26.1009 3.18971C25.853 3.13502 25.6051 3.08642 25.3693 3.03174C23.7006 2.65504 21.9351 2.4667 20.1334 2.4667C8.83935 2.4667 3.01698 8.82796 1.46314 14.2779C-1.11248 23.2699 -0.302309 33.2705 4.01459 45.7379C6.81392 53.8307 9.6858 60.1373 13.0414 65.5993C15.9133 70.2776 19.0572 74.5488 22.3825 78.3036C26.8264 83.2371 32.2618 88.0065 38.1084 92.0955C38.7613 92.5512 39.4083 92.9947 40.0673 93.4261C42.528 95.0422 44.4205 96.1905 46.3371 96.1905C48.429 96.1905 50.1884 94.9025 52.7096 92.5208C53.3384 91.9254 53.9188 91.3421 54.4449 90.7892L54.729 90.4915L54.9285 90.856C56.295 93.341 58.399 95.4553 61.1741 97.1383C64.2153 98.9853 68.4717 100 73.1756 100C77.8794 100 82.7526 98.9185 86.1202 97.0289C88.5266 95.6801 90.6245 93.906 92.3718 91.7431C94.5605 96.9925 98.7202 99.6476 104.772 99.6476C107.535 99.6476 109.972 99.1494 112.034 98.159C113.515 97.4117 114.815 96.4275 115.915 95.2245C117.536 97.8492 120.021 99.3134 123.334 99.5929V99.6293H123.805C124.047 99.6415 124.295 99.6476 124.543 99.6476C124.755 99.6476 124.948 99.6293 125.136 99.605C128.37 99.4835 131.067 98.4021 133.153 96.3485C135.281 94.2098 136.95 90.8621 138.116 86.3782L140.505 77.0399C140.94 75.3812 141.43 74.2025 141.962 73.522C142.506 72.8294 143.014 72.7504 143.34 72.7504C143.618 72.7504 143.987 72.8294 144.429 73.4856C144.658 73.8015 145.039 74.6461 145.039 76.7908V86.9797C145.039 90.7527 145.976 93.827 147.839 96.1297C149.749 98.4446 152.367 99.6172 155.614 99.6172C158.86 99.6172 162.095 98.5965 164.792 96.5854C167.446 94.5987 169.556 91.8828 171.049 88.5169C172.458 85.4001 173.214 81.9004 173.329 78.1092C175.796 77.9512 178.19 77.6657 180.463 77.2343C180.076 78.8565 179.883 80.5516 179.883 82.3075C179.883 85.7524 180.632 88.8146 182.114 91.4211C183.601 93.985 185.717 96.0204 188.402 97.4664C191.056 98.8942 194.2 99.6172 197.743 99.6233H197.755C197.755 99.6233 197.767 99.6233 197.773 99.6233C197.779 99.6233 197.785 99.6233 197.797 99.6233C201.056 99.6233 204.097 98.9732 206.824 97.6973C209.115 96.6401 211.141 95.188 212.858 93.3774C214.17 95.0969 215.778 96.5125 217.671 97.5879C220.035 98.9428 222.737 99.6293 225.694 99.6293C228.838 99.6293 231.661 98.8699 234.086 97.3692C236.54 95.832 238.487 93.7116 239.866 91.0808C241.293 88.4501 242.012 85.4365 242.012 82.1252C242.012 78.814 241.287 75.8247 239.872 73.2486H239.854ZM58.8887 74.2997L58.8343 73.4795C58.6287 70.3748 58.4655 66.614 58.3385 62.3306C58.2781 58.2052 58.2418 53.0955 58.2357 46.71L58.2236 45.6042V45.191C58.2236 38.4652 58.2902 32.9546 58.4232 28.8413C58.6227 24.7098 58.925 21.3804 59.324 18.9744C59.7956 16.4833 60.376 14.3994 61.0472 12.7893C62.4196 9.61172 64.4934 7.99559 67.2081 7.99559C69.6568 7.99559 71.5613 9.57527 72.8733 12.6921C74.1853 15.7421 74.7959 19.825 74.7959 25.5422C74.7959 31.2595 74.0885 37.2805 72.6979 43.1435C71.3799 49.0005 69.5238 54.6509 67.196 59.9429C64.8743 65.1437 62.2503 69.749 59.3845 73.6375L58.8948 74.2997H58.8887ZM231.28 89.1184C229.944 90.7102 228.209 91.5244 225.972 91.6033H225.615C223.209 91.6033 221.335 90.7831 219.889 89.1123C218.432 87.3807 217.719 85.1327 217.719 82.2407C217.719 79.3486 218.469 77.0217 219.944 75.3144C221.443 73.5889 223.318 72.7504 225.682 72.7504C228.046 72.7504 229.872 73.5646 231.292 75.2536C232.81 77.0095 233.517 79.1907 233.517 82.1131C233.517 85.0355 232.768 87.399 231.28 89.1184Z" fill="url(#paint0_linear_3578_19159)"/>
<path d="M33.2352 20.3597C32.9813 20.3354 32.7274 20.2746 32.4916 20.1835C31.9293 19.9769 31.5061 19.5152 31.3489 18.9501C31.2703 18.6767 31.1735 18.3486 31.0708 17.9841C29.9099 14.0713 29.0574 10.7236 30.3513 9.39912C30.9317 8.80978 31.8688 8.59106 33.2232 8.73687C34.7407 8.89484 36.5908 9.47811 38.0721 9.93986C38.6767 10.1282 39.1967 10.2923 39.5957 10.3955C40.1459 10.5414 40.5994 10.9424 40.817 11.4649C41.0649 12.0664 41.1314 12.6679 41.0165 13.2693C40.9258 13.8405 40.6296 14.4116 40.1519 14.9037C39.759 15.3108 39.2148 15.5052 38.6525 15.4444C38.5921 15.4384 38.5316 15.4262 38.4711 15.4141L35.6718 14.8247L36.3066 17.6682C36.4457 18.2757 36.2643 18.9076 35.829 19.3511C35.3453 19.8493 34.7951 20.1653 34.1905 20.2929C33.8761 20.3536 33.598 20.3658 33.3259 20.3475H33.2352V20.3597Z" fill="white"/>
<path d="M41.5667 27.6019C41.3612 27.5776 41.1556 27.529 40.9621 27.45C40.5631 27.2981 40.2668 26.9761 40.158 26.563C40.0854 26.2957 39.9947 25.9736 39.892 25.6152C38.4893 20.6574 38.2958 18.5977 39.1664 17.7289C39.6199 17.2732 40.4059 17.1153 41.5728 17.255C42.9996 17.4251 44.7651 17.9962 46.1859 18.4641C46.6273 18.6099 47.0203 18.7375 47.3589 18.8408C48.1207 19.0716 48.6588 19.7035 48.7313 20.463C48.7555 20.706 48.7374 20.949 48.695 21.186C48.6164 21.6477 48.3625 22.1156 47.9695 22.5166C47.6853 22.8021 47.2984 22.9358 46.8994 22.8872H46.851L43.9852 22.2432C43.967 22.2432 43.9549 22.2371 43.9368 22.2371C43.7977 22.2189 43.6587 22.2735 43.5619 22.3829C43.4591 22.4923 43.4229 22.6259 43.4591 22.7778L43.9731 25.2081C44.1484 26.0465 43.7917 26.8789 43.0843 27.2921C42.8485 27.4257 42.6006 27.5229 42.3467 27.5716C42.0867 27.6202 41.863 27.6262 41.6393 27.608H41.5788L41.5728 27.6019H41.5667Z" fill="white"/>
<g style="mix-blend-mode:multiply" opacity="0.8">
<path d="M51.8934 81.5724L51.7967 81.6757C51.4158 82.101 51.0046 82.6113 50.5754 83.1582C49.3299 84.7257 47.6309 86.8765 46.1496 87.0162C46.0892 87.0223 46.0227 87.0223 45.9562 87.0223C43.4471 87.0223 38.9669 83.1035 36.5606 80.9952C36.0043 80.5092 35.5086 80.0778 35.0974 79.7315C34.6017 79.3183 34.1301 78.9113 33.6706 78.5042L23.628 79.6282C27.8301 84.0817 32.7999 88.365 38.1084 92.0834C38.7613 92.5391 39.4083 92.9826 40.0673 93.414C42.528 95.0301 44.4205 96.1784 46.3371 96.1784C48.429 96.1784 50.1884 94.8903 52.7096 92.5087C53.3384 91.9133 53.9188 91.33 54.4449 90.7771L54.729 90.4794L54.9285 90.8439C52.9212 86.4694 52.0022 82.0645 51.8813 81.4752L51.8995 81.5603L51.8934 81.5724Z" fill="url(#paint1_linear_3578_19159)" fill-opacity="0.45"/>
<path d="M69.3666 54.5112C68.6954 56.3582 67.976 58.1749 67.19 59.9429C64.8683 65.1437 62.2443 69.7491 59.3784 73.6375L58.8887 74.2998C58.8887 74.2998 58.9975 77.4045 59.9649 81.7668C60.1826 82.745 60.5816 83.462 60.8114 84.0513L60.7993 84.0088L60.9262 83.8751C63.7437 80.9831 66.5128 77.3923 69.161 73.2001C71.8152 68.9107 74.1913 64.1716 76.2168 59.1105C76.3679 58.7521 76.507 58.3815 76.6521 58.023L69.3605 54.5112H69.3666Z" fill="url(#paint2_linear_3578_19159)" fill-opacity="0.45"/>
<path d="M61.7908 86.1778C61.5792 85.8011 61.3797 85.4062 61.1983 84.987C61.6155 85.9469 61.7908 86.1778 61.7908 86.1778Z" fill="url(#paint3_linear_3578_19159)"/>
</g>
</g>
<defs>
<linearGradient id="paint0_linear_3578_19159" x1="3.15604" y1="49.9969" x2="245.15" y2="49.9969" gradientUnits="userSpaceOnUse">
<stop stop-color="white"/>
<stop offset="1" stop-color="white"/>
</linearGradient>
<linearGradient id="paint1_linear_3578_19159" x1="30.8833" y1="89.1245" x2="61.1037" y2="80.9485" gradientUnits="userSpaceOnUse">
<stop offset="0.29" stop-color="#060103" stop-opacity="0"/>
<stop offset="0.92"/>
</linearGradient>
<linearGradient id="paint2_linear_3578_19159" x1="67.2323" y1="67.1912" x2="54.4085" y2="79.5716" gradientUnits="userSpaceOnUse">
<stop offset="0.21" stop-color="#060103" stop-opacity="0"/>
<stop offset="1"/>
</linearGradient>
<linearGradient id="paint3_linear_3578_19159" x1="61.2044" y1="85.5824" x2="61.7908" y2="85.5824" gradientUnits="userSpaceOnUse">
<stop stop-color="#060103" stop-opacity="0"/>
<stop offset="1"/>
</linearGradient>
<clipPath id="clip0_3578_19159">
<rect width="242" height="100" fill="white"/>
</clipPath>
</defs>
</svg>
