<svg width="98" height="40" viewBox="0 0 98 40" fill="none" xmlns="http://www.w3.org/2000/svg">
<g clip-path="url(#clip0_5530_21503)">
<path d="M96.4117 29.2995C95.8552 28.2593 95.0726 27.4257 94.0859 26.8303C93.0944 26.213 91.9594 25.9019 90.7127 25.9019C89.466 25.9019 88.3262 26.213 87.3225 26.8279C86.3358 27.4233 85.5435 28.2544 84.9675 29.2922C84.394 30.3275 84.1023 31.5256 84.1023 32.8501C84.1023 33.2025 84.1218 33.5525 84.1631 33.8927C83.6649 34.7384 83.0209 35.4189 82.2505 35.9196C81.4776 36.4129 80.6076 36.6657 79.6646 36.6729C79.6549 36.6729 79.6428 36.6729 79.633 36.6729C78.3377 36.6729 77.3729 36.3303 76.69 35.6304C76.0314 34.9426 75.6814 33.9632 75.6814 32.7991C75.6814 31.635 75.9512 30.7212 76.481 30.0699C77.0108 29.421 77.6864 29.105 78.5443 29.105C79.4022 29.105 80.034 29.4234 80.5152 30.0747L80.7364 30.3761L81.0839 30.24C82.0244 29.873 82.6272 29.2509 82.8775 28.393L82.9431 28.167L82.807 27.975C82.3234 27.2994 81.6915 26.7817 80.9381 26.4463C80.1993 26.0866 79.3681 25.9044 78.4665 25.9044C77.2319 25.9044 76.1091 26.2446 75.1249 26.9154C73.341 27.5764 71.3895 27.9652 69.3141 28.0892C69.2485 27.8729 69.1755 27.6688 69.0929 27.4792C68.6676 26.4342 68.0528 25.9044 67.2678 25.9044C66.8328 25.9044 66.3856 26.0769 65.9384 26.4172C65.5374 26.7185 65.1947 27.1414 64.9201 27.6663C64.6455 28.1742 64.4778 28.7429 64.4219 29.3578L64.4025 29.5644L64.5386 29.7199C64.9809 30.2303 65.5787 30.6507 66.3151 30.9739V31.0639C66.3151 32.0505 66.1353 32.9935 65.778 33.8708C65.4451 34.7141 64.9955 35.4068 64.4438 35.9293C63.9286 36.4153 63.3915 36.6511 62.8034 36.6511C62.5117 36.6511 61.6271 36.6511 61.6271 34.3083V30.3882C61.6271 29.0394 61.2504 27.9482 60.5189 27.1608C59.7849 26.3272 58.876 25.9044 57.8188 25.9044C55.5392 25.9044 53.9839 27.3868 53.194 30.3178L52.4163 33.358C52.1028 34.6023 51.7407 35.4918 51.3349 36.007C50.997 36.4396 50.6374 36.6511 50.2388 36.6511C50.2096 36.6511 50.178 36.6511 50.1464 36.6535C49.5583 36.6268 49.3226 36.3546 49.2084 36.1626C48.9702 35.7178 48.8511 35.0714 48.8511 34.2378V26.4074L48.5133 26.2981C48.088 26.162 47.636 26.0915 47.1718 26.0915C46.9215 26.0915 46.676 26.1109 46.4451 26.1498C46.2118 26.1887 46.0077 26.2397 45.8351 26.3029L45.5168 26.4196V31.6374C45.5168 36.5757 43.0889 36.5757 42.2918 36.5757C41.412 36.5757 40.7923 36.3108 40.4059 35.7689C39.983 35.1637 39.7667 34.1479 39.7667 32.7529V26.4026L39.4289 26.2956C39.0012 26.1595 38.5589 26.0915 38.1117 26.0915C37.8614 26.0915 37.6159 26.1109 37.3826 26.1498C37.1542 26.1887 36.9476 26.2373 36.7653 26.2956L36.4299 26.405V29.0151C36.4299 30.5122 36.165 31.8586 35.6425 33.0202C35.1249 34.1673 34.4079 35.0787 33.5136 35.7349C32.6071 36.3983 31.1416 36.7969 29.596 36.7969C28.3031 36.7969 27.0879 36.515 26.2738 36.0313C25.5374 35.5647 24.9712 34.877 24.5799 33.968C24.5264 33.8538 24.4875 33.7615 24.4608 33.6861L24.4365 33.6108L24.4875 33.5573C25.62 32.4005 26.7331 30.9642 27.7976 29.2873C28.8645 27.5715 29.8196 25.6759 30.6337 23.6515C31.4819 21.6149 32.1526 19.435 32.6314 17.1797C33.1369 14.9001 33.3921 12.5743 33.3921 10.2679C33.3921 7.07212 32.8307 4.53247 31.7249 2.71462C30.6313 0.918646 29.0467 0.00728989 27.0175 0.00728989C25.9992 0.00728989 25.0489 0.218724 24.1862 0.636733C23.355 1.05231 22.6405 1.74008 22.0694 2.67574C21.6733 3.30761 21.3403 4.02454 21.0779 4.81439C20.8397 5.57992 20.6404 6.53016 20.4824 7.63837C20.322 8.76602 20.2151 10.1659 20.1641 11.7966C20.113 13.3787 20.0863 15.3278 20.0839 17.5977V18.4969C20.0912 21.9284 20.1446 24.784 20.2467 26.9834C20.3512 29.2533 20.5505 31.1368 20.8445 32.5755L20.8567 32.6387L20.8178 32.68C20.6647 32.8501 20.4994 33.0543 20.3269 33.273C19.8263 33.9 19.1433 34.7603 18.5479 34.8162C18.5236 34.8186 18.4969 34.8186 18.4702 34.8186C17.4616 34.8186 15.6608 33.2511 14.6935 32.4078C14.4699 32.2134 14.2706 32.0408 14.1054 31.9023C13.6704 31.5402 13.2621 31.1805 12.8975 30.8281C11.4904 29.4817 10.1367 27.8437 8.87541 25.9651C7.59222 24.0331 6.47672 21.9284 5.55565 19.7096C4.48146 17.2015 3.75481 14.5793 3.45588 12.1295C3.06218 8.90455 3.34652 6.67841 4.29433 5.51674C5.00397 4.6467 6.258 4.14849 7.73318 4.14849C8.37963 4.14849 9.02609 4.24813 9.59234 4.43283C9.71872 4.47658 9.84509 4.52275 9.97147 4.57379C10.0784 4.61753 10.1902 4.63941 10.3044 4.63941C10.7516 4.63941 11.1234 4.30646 11.1696 3.86658C11.1769 3.79124 11.1842 3.72076 11.189 3.65271C11.2206 3.30032 11.2352 3.27845 11.3106 3.22255C11.381 3.17152 11.5268 3.09375 11.5755 3.07674C11.8719 3.01355 12.0615 2.85315 12.1368 2.6004C12.1563 2.53478 12.2122 2.29418 12.0858 2.00498C11.8914 1.57239 11.3057 1.44845 10.4915 1.2759C10.3919 1.25402 10.2923 1.23458 10.1975 1.21271C9.52672 1.06203 8.81708 0.986693 8.09286 0.986693C3.55309 0.986693 1.21273 3.5312 0.58815 5.71116C-0.44715 9.30798 -0.121492 13.3082 1.61373 18.2952C2.73895 21.5323 3.89333 24.0549 5.24214 26.2397C6.39652 28.1111 7.66027 29.8196 8.99692 31.3215C10.7832 33.2949 12.968 35.2026 15.3181 36.8382C15.5806 37.0205 15.8406 37.1979 16.1055 37.3704C17.0946 38.0169 17.8553 38.4762 18.6257 38.4762C19.4666 38.4762 20.1738 37.961 21.1872 37.0083C21.44 36.7702 21.6733 36.5368 21.8847 36.3157L21.9989 36.1966L22.0791 36.3424C22.6284 37.3364 23.4741 38.1822 24.5896 38.8553C25.812 39.5941 27.523 40 29.4137 40C31.3045 40 33.2633 39.5674 34.617 38.8116C35.5842 38.2721 36.4275 37.5624 37.1299 36.6972C38.0096 38.797 39.6817 39.859 42.1144 39.859C43.225 39.859 44.2044 39.6598 45.0331 39.2636C45.6286 38.9647 46.1511 38.571 46.5934 38.0898C47.2447 39.1397 48.2435 39.7254 49.5753 39.8372V39.8518H49.7649C49.8621 39.8566 49.9617 39.859 50.0614 39.859C50.1465 39.859 50.2242 39.8518 50.2996 39.842C51.5998 39.7934 52.6837 39.3608 53.5221 38.5394C54.3776 37.6839 55.0483 36.3449 55.5174 34.5513L56.4773 30.816C56.6523 30.1525 56.8492 29.681 57.063 29.4088C57.2818 29.1318 57.4859 29.1002 57.6171 29.1002C57.7289 29.1002 57.8772 29.1318 58.0546 29.3943C58.1469 29.5206 58.3 29.8584 58.3 30.7163V34.7919C58.3 36.3011 58.6767 37.5308 59.4253 38.4519C60.1932 39.3778 61.2455 39.8469 62.5506 39.8469C63.8557 39.8469 65.1559 39.4386 66.2398 38.6342C67.3067 37.8395 68.1548 36.7531 68.7551 35.4068C69.3214 34.16 69.6251 32.7602 69.6713 31.2437C70.6629 31.1805 71.6253 31.0663 72.5391 30.8937C72.3835 31.5426 72.3057 32.2207 72.3057 32.923C72.3057 34.301 72.6071 35.5259 73.2025 36.5684C73.8004 37.594 74.651 38.4082 75.73 38.9866C76.7969 39.5577 78.0607 39.8469 79.4848 39.8493H79.4897C79.4897 39.8493 79.4945 39.8493 79.4969 39.8493C79.4994 39.8493 79.5018 39.8493 79.5067 39.8493C80.8166 39.8493 82.039 39.5893 83.1351 39.0789C84.0562 38.6561 84.8703 38.0752 85.5605 37.351C86.0879 38.0388 86.7343 38.605 87.495 39.0352C88.4452 39.5771 89.5316 39.8518 90.72 39.8518C91.9837 39.8518 93.1187 39.548 94.0932 38.9477C95.0799 38.3328 95.8625 37.4847 96.4166 36.4323C96.9901 35.38 97.2793 34.1746 97.2793 32.8501C97.2793 31.5256 96.9877 30.3299 96.419 29.2995H96.4117ZM23.671 29.7199L23.6491 29.3918C23.5665 28.1499 23.5008 26.6456 23.4498 24.9323C23.4255 23.2821 23.4109 21.2382 23.4085 18.684L23.4036 18.2417V18.0764C23.4036 15.3861 23.4304 13.1818 23.4838 11.5365C23.564 9.88395 23.6855 8.55216 23.8459 7.58977C24.0355 6.59335 24.2688 5.75977 24.5386 5.11574C25.0902 3.8447 25.9238 3.19825 27.015 3.19825C27.9993 3.19825 28.7648 3.83012 29.2922 5.07686C29.8196 6.29686 30.065 7.93001 30.065 10.2169C30.065 12.5038 29.7807 14.9122 29.2217 17.2574C28.6919 19.6002 27.9458 21.8604 27.0102 23.9772C26.0769 26.0575 25.0222 27.8996 23.8702 29.455L23.6734 29.7199H23.671ZM92.9656 35.6474C92.4285 36.2841 91.731 36.6098 90.8318 36.6414H90.6884C89.7211 36.6414 88.9678 36.3133 88.3869 35.6449C87.8012 34.9523 87.5145 34.0531 87.5145 32.8963C87.5145 31.7395 87.8158 30.8087 88.4088 30.1258C89.0115 29.4356 89.7649 29.1002 90.7151 29.1002C91.6654 29.1002 92.3993 29.4258 92.9704 30.1015C93.5804 30.8038 93.8648 31.6763 93.8648 32.8452C93.8648 34.0142 93.5634 34.9596 92.9656 35.6474Z" fill="url(#paint0_linear_5530_21503)"/>
<path d="M13.3593 8.14387C13.2572 8.13415 13.1551 8.10985 13.0603 8.07339C12.8343 7.99076 12.6642 7.80606 12.601 7.58005C12.5694 7.47068 12.5305 7.33945 12.4892 7.19363C12.0226 5.62853 11.6799 4.28945 12.2 3.75964C12.4333 3.52391 12.81 3.43642 13.3544 3.49474C13.9644 3.55793 14.7081 3.79124 15.3035 3.97594C15.5465 4.05128 15.7555 4.1169 15.9159 4.15821C16.1371 4.21654 16.3194 4.37694 16.4068 4.58594C16.5065 4.82654 16.5332 5.06713 16.487 5.30773C16.4506 5.53618 16.3315 5.76463 16.1395 5.96148C15.9815 6.12431 15.7628 6.20208 15.5368 6.17777C15.5125 6.17534 15.4882 6.17048 15.4639 6.16562L14.3387 5.92988L14.5939 7.06726C14.6497 7.31028 14.5768 7.56303 14.4019 7.74044C14.2074 7.93973 13.9863 8.0661 13.7433 8.11714C13.6169 8.14144 13.5051 8.1463 13.3957 8.13901H13.3593V8.14387Z" fill="#E72977"/>
<path d="M16.7082 11.0408C16.6256 11.031 16.5429 11.0116 16.4652 10.98C16.3048 10.9193 16.1857 10.7904 16.1419 10.6252C16.1128 10.5183 16.0763 10.3895 16.035 10.2461C15.4712 8.26296 15.3934 7.43909 15.7434 7.09156C15.9257 6.90929 16.2416 6.8461 16.7106 6.902C17.2842 6.97005 17.9938 7.19849 18.5649 7.38562C18.7424 7.44395 18.9003 7.49499 19.0364 7.5363C19.3426 7.62865 19.5589 7.8814 19.5881 8.18519C19.5978 8.2824 19.5905 8.37961 19.5735 8.47439C19.5419 8.65909 19.4398 8.84622 19.2819 9.00662C19.1676 9.12085 19.0121 9.17431 18.8517 9.15487H18.8323L17.6803 8.89726C17.673 8.89726 17.6682 8.89483 17.6609 8.89483C17.605 8.88754 17.5491 8.90941 17.5102 8.95316C17.4689 8.9969 17.4543 9.05037 17.4689 9.11112L17.6755 10.0832C17.7459 10.4186 17.6026 10.7516 17.3182 10.9168C17.2234 10.9703 17.1238 11.0092 17.0217 11.0286C16.9172 11.0481 16.8273 11.0505 16.7374 11.0432H16.7131L16.7106 11.0408H16.7082Z" fill="#E72977"/>
<g style="mix-blend-mode:multiply">
<path d="M20.8591 32.629L20.8202 32.6703C20.6671 32.8404 20.5019 33.0445 20.3293 33.2633C19.8287 33.8903 19.1458 34.7506 18.5504 34.8065C18.5261 34.8089 18.4993 34.8089 18.4726 34.8089C17.464 34.8089 15.6632 33.2414 14.6959 32.3981C14.4723 32.2037 14.2731 32.0311 14.1078 31.8926C13.9085 31.7273 13.719 31.5645 13.5343 31.4017L9.49756 31.8513C11.1866 33.6327 13.1843 35.346 15.3181 36.8333C15.5806 37.0156 15.8406 37.193 16.1055 37.3656C17.0946 38.012 17.8553 38.4714 18.6257 38.4714C19.4666 38.4714 20.1738 37.9561 21.1872 37.0035C21.44 36.7653 21.6733 36.532 21.8847 36.3108L21.9989 36.1917L22.0791 36.3376C21.2723 34.5878 20.9029 32.8258 20.8543 32.5901L20.8616 32.6241L20.8591 32.629Z" fill="url(#paint1_linear_5530_21503)"/>
<path d="M27.8827 21.8045C27.6129 22.5433 27.3237 23.2699 27.0078 23.9772C26.0745 26.0575 25.0198 27.8996 23.8678 29.455L23.671 29.7199C23.671 29.7199 23.5665 31.1975 24.1036 32.7067C24.2372 33.0858 24.3515 33.3848 24.4438 33.6205L24.4389 33.6035L24.49 33.55C25.6225 32.3932 26.7356 30.9569 27.8 29.28C28.8669 27.5643 29.822 25.6686 30.6362 23.6442C30.6969 23.5008 30.7528 23.3526 30.8111 23.2092L27.8802 21.8045H27.8827Z" fill="url(#paint2_linear_5530_21503)"/>
<path d="M24.8375 34.4711C24.7524 34.3204 24.6722 34.1625 24.5993 33.9948C24.767 34.3788 24.8375 34.4711 24.8375 34.4711Z" fill="url(#paint3_linear_5530_21503)"/>
</g>
</g>
<defs>
<linearGradient id="paint0_linear_5530_21503" x1="1.26863" y1="19.9988" x2="98.5406" y2="19.9988" gradientUnits="userSpaceOnUse">
<stop stop-color="#E72977"/>
<stop offset="0.43" stop-color="#F3509E"/>
<stop offset="0.79" stop-color="#FB69B6"/>
<stop offset="1" stop-color="#FF73C0"/>
</linearGradient>
<linearGradient id="paint1_linear_5530_21503" x1="12.4139" y1="35.6498" x2="24.5531" y2="32.3495" gradientUnits="userSpaceOnUse">
<stop offset="0.29" stop-color="#060103" stop-opacity="0"/>
<stop offset="0.38" stop-color="#0F0009" stop-opacity="0.08"/>
<stop offset="0.53" stop-color="#270019" stop-opacity="0.28"/>
<stop offset="0.72" stop-color="#500035" stop-opacity="0.61"/>
<stop offset="0.92" stop-color="#7F0055"/>
</linearGradient>
<linearGradient id="paint2_linear_5530_21503" x1="26.6092" y1="27.3164" x2="22.4704" y2="33.1442" gradientUnits="userSpaceOnUse">
<stop offset="0.21" stop-color="#060103" stop-opacity="0"/>
<stop offset="0.35" stop-color="#090005" stop-opacity="0.03"/>
<stop offset="0.49" stop-color="#15000D" stop-opacity="0.13"/>
<stop offset="0.63" stop-color="#29001B" stop-opacity="0.3"/>
<stop offset="0.78" stop-color="#45002E" stop-opacity="0.52"/>
<stop offset="0.92" stop-color="#680045" stop-opacity="0.82"/>
<stop offset="1" stop-color="#7F0055"/>
</linearGradient>
<linearGradient id="paint3_linear_5530_21503" x1="24.6017" y1="34.2329" x2="24.8375" y2="34.2329" gradientUnits="userSpaceOnUse">
<stop stop-color="#060103" stop-opacity="0"/>
<stop offset="1"/>
</linearGradient>
<clipPath id="clip0_5530_21503">
<rect width="97.2744" height="40" fill="white"/>
</clipPath>
</defs>
</svg>
